<svg width="350" height="500" viewBox="0 0 8692 7720" fill="none" xmlns="http://www.w3.org/2000/svg">
<path fill-rule="evenodd" clip-rule="evenodd" d="M4849.3 27.971C5692.18 128.604 6342.97 714.464 7012.62 1225.93C7657.23 1718.27 8450.98 2156.32 8652.08 2932.46C8849.88 3695.85 8240.02 4395.17 8030.83 5155.65C7805.46 5974.94 8102.11 7086.74 7380.31 7555.73C6653.12 8028.21 5713.51 7341.02 4849.3 7222.81C4143.12 7126.22 3459.89 7151.08 2784.5 6927.1C1821.88 6607.88 528.002 6559.07 110.528 5651.34C-300.753 4757.08 540.312 3798.83 930.302 2895.46C1282.29 2080.11 1541.67 1188.92 2265.67 659.177C2994.65 125.796 3946.13 -79.8606 4849.3 27.971Z" fill="#C4C4C4"/>
</svg>
