<svg width="300" height="500" viewBox="0 0 7947 8134" fill="none" xmlns="http://www.w3.org/2000/svg">
<path fill-rule="evenodd" clip-rule="evenodd" d="M1650.73 93.4266C2436.15 -229.483 3782.79 384.876 4624.26 515.096C5460.29 93.4269 6346.91 644.042 6913.35 1241.13C7470.5 1828.42 7291.35 2754.12 7492.27 3538.27C7708.72 4383.05 8189.53 5465.29 7796.72 6239.41C7400.97 7019.31 6573.73 6632.77 5760.87 6950.39C5096.64 7209.92 4513.62 7567.07 3812.04 7697.34C2812.08 7883.02 1659.67 8473.42 838.301 7864.43C29.1193 7264.48 279.308 5993.38 163.97 4992.55C59.8697 4089.23 -163.178 3163.33 200.926 2333.67C567.53 1498.32 809.134 439.435 1650.73 93.4266Z" fill="#3C73C6"/>
</svg>
