<svg width="35" height="35" viewBox="0 0 885 697" fill="none" xmlns="http://www.w3.org/2000/svg">
<path d="M848.155 316.984H765.422L699.375 118.669C694.956 104.739 679.945 95.2498 663.129 95.7564C646.344 96.0803 631.938 106.101 628.098 120.123L519.542 516.09L405.388 26.2277C401.902 11.4981 386.807 0.912781 369.289 0.912781C351.77 0.912781 336.676 11.4981 333.19 26.2277L265.411 316.984H37.7656C17.4217 316.984 0.929688 331.134 0.929688 348.588C0.929688 366.043 17.4217 380.192 37.7656 380.192H295.617C313.124 380.195 328.215 369.626 331.716 354.909L369.289 193.729L480.533 670.949C483.985 685.47 498.735 695.983 516.006 696.232H516.632C533.734 696.241 548.594 686.149 552.51 671.866L667.439 252.765L702.248 357.279C706.768 370.838 721.211 380.186 737.648 380.192H848.155C868.499 380.192 884.991 366.043 884.991 348.588C884.991 331.134 868.499 316.984 848.155 316.984Z" fill="#FEFEFF"/>
</svg>
