<svg width="30" height="30" viewBox="0 0 48 48" fill="none" xmlns="http://www.w3.org/2000/svg">
<path d="M20.7568 32.4973C20.2378 32.4973 19.719 32.3028 19.3947 31.9136L12.1299 24.454C11.3515 23.6757 11.4163 22.4432 12.1947 21.7297C12.973 20.9514 14.2055 21.0162 14.919 21.7945L20.8217 27.8918L33.2758 16.0863C34.0541 15.3728 35.2866 15.3728 36.0001 16.1511C36.7136 16.9295 36.7136 18.162 35.9353 18.8755L22.1189 31.9784C21.7297 32.3028 21.2108 32.4973 20.7568 32.4973Z" fill="white"/>
<path d="M24 48C10.7676 48 0 37.2325 0 24C0 10.7675 10.7676 0 24 0C37.2324 0 48 10.7676 48 24C48 37.2324 37.2325 48 24 48ZM24 3.8919C12.9081 3.8919 3.8919 12.9081 3.8919 24C3.8919 35.0919 12.9081 44.1081 24 44.1081C35.0919 44.1081 44.1081 35.0919 44.1081 24C44.1081 12.9081 35.0919 3.8919 24 3.8919Z" fill="#224587"/>
</svg>
