<svg width="30" height="30" viewBox="0 0 71 71" fill="none" xmlns="http://www.w3.org/2000/svg">
<path d="M62.6797 9.42969H8.32031C3.73249 9.42969 0 13.1622 0 17.75V53.25C0 57.8378 3.73249 61.5703 8.32031 61.5703H62.6797C67.2675 61.5703 71 57.8378 71 53.25V17.75C71 13.1622 67.2675 9.42969 62.6797 9.42969ZM65.4531 53.25C65.4531 54.7793 64.209 56.0234 62.6797 56.0234H8.32031C6.79104 56.0234 5.54688 54.7793 5.54688 53.25V17.75C5.54688 16.2207 6.79104 14.9766 8.32031 14.9766H62.6797C64.209 14.9766 65.4531 16.2207 65.4531 17.75V53.25Z" fill="#224587"/>
<path d="M64.9822 12.8878L35.5 34.8169L6.01781 12.8878L2.70715 17.3384L35.5 41.73L68.2929 17.3384L64.9822 12.8878Z" fill="#224587"/>
<rect width="71" height="71" stroke="#25A8B0"/>
</svg>
