<svg width="8655" height="6105" viewBox="0 0 8655 6105" fill="none" xmlns="http://www.w3.org/2000/svg">
<g clip-path="url(#clip0)">
<path d="M4420.49 6091.4C4680.78 6091.4 4891.78 5880.22 4891.78 5619.72C4891.78 5359.22 4680.78 5148.04 4420.49 5148.04C4160.21 5148.04 3949.21 5359.22 3949.21 5619.72C3949.21 5880.22 4160.21 6091.4 4420.49 6091.4Z" fill="#437CEA"/>
<path d="M1290.54 959.335C1426.34 959.335 1536.42 849.155 1536.42 713.242C1536.42 577.328 1426.34 467.148 1290.54 467.148C1154.74 467.148 1044.65 577.328 1044.65 713.242C1044.65 849.155 1154.74 959.335 1290.54 959.335Z" fill="#F2F2F2"/>
<path d="M2996.39 1425.89C3132.19 1425.89 3242.28 1315.71 3242.28 1179.79C3242.28 1043.88 3132.19 933.699 2996.39 933.699C2860.59 933.699 2750.5 1043.88 2750.5 1179.79C2750.5 1315.71 2860.59 1425.89 2996.39 1425.89Z" fill="#F2F2F2"/>
<path d="M4440.99 492.784C4576.79 492.784 4686.88 382.604 4686.88 246.691C4686.88 110.777 4576.79 0.597656 4440.99 0.597656C4305.19 0.597656 4195.1 110.777 4195.1 246.691C4195.1 382.604 4305.19 492.784 4440.99 492.784Z" fill="#F2F2F2"/>
<path d="M5342.58 1538.68C5478.38 1538.68 5588.47 1428.5 5588.47 1292.59C5588.47 1156.67 5478.38 1046.49 5342.58 1046.49C5206.78 1046.49 5096.69 1156.67 5096.69 1292.59C5096.69 1428.5 5206.78 1538.68 5342.58 1538.68Z" fill="#F2F2F2"/>
<path d="M4123.38 2748.64C4259.18 2748.64 4369.27 2638.46 4369.27 2502.55C4369.27 2366.63 4259.18 2256.45 4123.38 2256.45C3987.58 2256.45 3877.49 2366.63 3877.49 2502.55C3877.49 2638.46 3987.58 2748.64 4123.38 2748.64Z" fill="#F2F2F2"/>
<path d="M2576.33 3333.11C2712.13 3333.11 2822.22 3222.93 2822.22 3087.02C2822.22 2951.11 2712.13 2840.93 2576.33 2840.93C2440.53 2840.93 2330.44 2951.11 2330.44 3087.02C2330.44 3222.93 2440.53 3333.11 2576.33 3333.11Z" fill="#F2F2F2"/>
<path d="M4215.59 4245.71C4351.39 4245.71 4461.48 4135.53 4461.48 3999.61C4461.48 3863.7 4351.39 3753.52 4215.59 3753.52C4079.79 3753.52 3969.7 3863.7 3969.7 3999.61C3969.7 4135.53 4079.79 4245.71 4215.59 4245.71Z" fill="#F2F2F2"/>
<path d="M5977.79 4758.4C6113.59 4758.4 6223.68 4648.22 6223.68 4512.31C6223.68 4376.39 6113.59 4266.21 5977.79 4266.21C5841.99 4266.21 5731.9 4376.39 5731.9 4512.31C5731.9 4648.22 5841.99 4758.4 5977.79 4758.4Z" fill="#F2F2F2"/>
<path d="M7425.54 4595.86C7561.34 4595.86 7671.43 4485.68 7671.43 4349.77C7671.43 4213.86 7561.34 4103.68 7425.54 4103.68C7289.74 4103.68 7179.65 4213.86 7179.65 4349.77C7179.65 4485.68 7289.74 4595.86 7425.54 4595.86Z" fill="#F2F2F2"/>
<path d="M4370.01 697.897C3633.45 703.104 3030.37 1302.16 3019.9 2039.27C3019.81 2046.08 3019.76 2093.93 3019.77 2156.52C3019.77 2248.28 3056.2 2336.29 3121.03 2401.18C3185.86 2466.07 3273.79 2502.53 3365.49 2502.54C3410.94 2502.53 3455.94 2493.56 3497.93 2476.14C3539.92 2458.71 3578.06 2433.18 3610.18 2401C3642.3 2368.81 3667.77 2330.61 3685.14 2288.57C3702.5 2246.53 3711.42 2201.48 3711.38 2155.99C3711.35 2113.41 3711.32 2083.94 3711.32 2082.14C3711.3 1968.22 3740.91 1856.25 3797.23 1757.26C3853.56 1658.26 3934.66 1575.65 4032.57 1517.54C4130.47 1459.43 4241.81 1427.83 4355.61 1425.85C4469.42 1423.86 4581.79 1451.56 4681.65 1506.23C4781.52 1560.89 4865.45 1640.62 4925.19 1737.6C4984.92 1834.57 5018.41 1945.43 5022.35 2059.28C5026.29 2173.14 5000.55 2286.05 4947.66 2386.93C4894.77 2487.8 4816.55 2573.16 4720.7 2634.61L4720.82 2634.75C4720.82 2634.75 4228.75 2951.8 4078.73 3386.73L4078.86 3386.76C4052.48 3475.86 4039.12 3568.31 4039.18 3661.23C4039.18 3699.43 4041.42 4033.67 4045.76 4304.95C4047.28 4398.55 4085.5 4487.8 4152.18 4553.45C4218.86 4619.1 4308.66 4655.88 4402.2 4655.86C4449.2 4655.86 4495.73 4646.55 4539.13 4628.49C4582.52 4610.42 4621.92 4583.94 4655.05 4550.57C4688.18 4517.21 4714.39 4477.62 4732.17 4434.08C4749.96 4390.53 4758.96 4343.9 4758.67 4296.87C4757.17 4048.42 4756.35 3759.13 4756.35 3738.14C4756.35 3471.08 5013.77 3204.99 5225.22 3031.47C5468.71 2831.65 5643.92 2559.35 5714.3 2252.18C5729.87 2188.94 5738.46 2124.18 5739.91 2059.06C5739.91 1879.48 5704.4 1701.67 5635.44 1535.88C5566.47 1370.1 5465.41 1219.6 5338.07 1093.08C5210.73 966.553 5059.64 866.497 4893.5 798.673C4727.35 730.849 4549.44 696.6 4370.01 697.897Z" fill="#437CEA"/>
<path d="M8642.53 6104.34H12.9157C9.68642 6104.34 6.59269 6103.04 4.31257 6100.76C2.03244 6098.47 0.751953 6095.37 0.751953 6092.14C0.751953 6088.9 2.03244 6085.8 4.31257 6083.51C6.59269 6081.23 9.68642 6079.94 12.9157 6079.93H8642.53C8645.76 6079.93 8648.87 6081.21 8651.15 6083.5C8653.44 6085.79 8654.73 6088.9 8654.73 6092.14C8654.73 6095.37 8653.44 6098.48 8651.15 6100.77C8648.87 6103.06 8645.76 6104.34 8642.53 6104.34Z" fill="#3F3D56"/>
<path d="M6439.41 2799.87C6609.16 2799.87 6746.77 2662.14 6746.77 2492.25C6746.77 2322.36 6609.16 2184.63 6439.41 2184.63C6269.66 2184.63 6132.05 2322.36 6132.05 2492.25C6132.05 2662.14 6269.66 2799.87 6439.41 2799.87Z" fill="#2F2E41"/>
<path d="M5871.44 5969.68H5745.84L5686.08 5484.79H5871.47L5871.44 5969.68Z" fill="#A0616A"/>
<path d="M5656.12 5933.76H5898.36V6086.41H5503.6C5503.6 6066.36 5507.54 6046.51 5515.21 6027.99C5522.87 6009.47 5534.1 5992.65 5548.27 5978.47C5562.43 5964.3 5579.24 5953.05 5597.75 5945.38C5616.25 5937.71 5636.09 5933.76 5656.12 5933.76Z" fill="#2F2E41"/>
<path d="M6844.75 5969.68H6719.15L6659.39 5484.79H6844.78L6844.75 5969.68Z" fill="#A0616A"/>
<path d="M6629.42 5933.76H6871.66V6086.41H6476.9C6476.9 6066.36 6480.85 6046.51 6488.51 6027.99C6496.18 6009.47 6507.41 5992.65 6521.57 5978.47C6535.74 5964.3 6552.55 5953.05 6571.06 5945.38C6589.56 5937.71 6609.39 5933.76 6629.42 5933.76Z" fill="#2F2E41"/>
<path d="M6392.7 2801.66C6531.67 2801.66 6644.33 2688.91 6644.33 2549.82C6644.33 2410.73 6531.67 2297.97 6392.7 2297.97C6253.72 2297.97 6141.06 2410.73 6141.06 2549.82C6141.06 2688.91 6253.72 2801.66 6392.7 2801.66Z" fill="#A0616A"/>
<path d="M6542.68 3614.13L6655.27 3355.22C6682.62 3294.48 6690.46 3226.75 6677.7 3161.36C6664.95 3095.98 6632.23 3036.16 6584.07 2990.18C6574.18 2980.39 6563.67 2971.25 6552.61 2962.8C6497.06 2919.3 6428.59 2895.6 6358.06 2895.43C6310.63 2895.62 6263.8 2906.04 6220.77 2925.99C6217.08 2927.63 6213.5 2929.37 6209.8 2931.12C6202.74 2934.5 6195.77 2938.19 6189.01 2941.99C6144.9 2967.33 6107.36 3002.7 6079.42 3045.23C6051.48 3087.76 6033.92 3136.27 6028.15 3186.85L5978.46 3603.57C5965.97 3636.28 5520.09 4817.52 5676.02 5719.35C5677.68 5728.98 5682.38 5737.83 5689.42 5744.6C5696.46 5751.37 5705.48 5755.71 5715.16 5756.98L5873.25 5778.52C5884.79 5780.1 5896.5 5777.24 5906.03 5770.53C5915.55 5763.81 5922.18 5753.73 5924.57 5742.32L6189.83 4476.89C6191.48 4469.03 6195.72 4461.95 6201.87 4456.78C6208.01 4451.61 6215.71 4448.66 6223.74 4448.38C6231.76 4448.11 6239.64 4450.54 6246.13 4455.28C6252.61 4460.02 6257.32 4466.8 6259.5 4474.53L6634.27 5805.28C6636.94 5814.95 6642.71 5823.47 6650.68 5829.55C6658.66 5835.62 6668.41 5838.91 6678.43 5838.91C6681.42 5838.89 6684.4 5838.62 6687.34 5838.09L6880.47 5800.87C6891.69 5798.77 6901.73 5792.55 6908.61 5783.42C6915.49 5774.3 6918.72 5762.93 6917.66 5751.55C6889.28 5434.81 6738.47 3848.22 6542.68 3614.13Z" fill="#2F2E41"/>
<path d="M5414.77 2759.4C5413.02 2774.37 5414.57 2789.54 5419.32 2803.85C5424.07 2818.16 5431.89 2831.25 5442.24 2842.2C5452.59 2853.15 5465.21 2861.7 5479.22 2867.24C5493.22 2872.78 5508.27 2875.19 5523.31 2874.28L5663.97 3212.58L5770.36 3054.72L5620.48 2757.67C5617.28 2732.49 5604.96 2709.37 5585.87 2692.67C5566.77 2675.98 5542.21 2666.87 5516.86 2667.09C5491.5 2667.3 5467.1 2676.81 5448.28 2693.83C5429.47 2710.84 5417.54 2734.17 5414.76 2759.4L5414.77 2759.4Z" fill="#A0616A"/>
<path d="M6378.74 3954.77C6393.7 3952.98 6408.08 3947.93 6420.87 3939.97C6433.67 3932.02 6444.56 3921.36 6452.79 3908.73C6461.03 3896.11 6466.39 3881.83 6468.51 3866.91C6470.63 3851.98 6469.46 3836.78 6465.07 3822.36L6761.01 3606.63L6582.84 3539.85L6329.13 3754.95C6305.41 3763.93 6285.81 3781.3 6274.04 3803.78C6262.27 3826.26 6259.14 3852.28 6265.26 3876.91C6271.37 3901.54 6286.3 3923.07 6307.22 3937.42C6328.13 3951.77 6353.58 3957.94 6378.74 3954.77Z" fill="#A0616A"/>
<path d="M5896.31 3438.12C5884.96 3438.1 5873.65 3436.99 5862.52 3434.78C5835.6 3429.65 5810.35 3417.98 5789.01 3400.78C5767.66 3383.59 5750.87 3361.4 5740.11 3336.18L5543.05 3095.69C5538.88 3090.61 5535.85 3084.69 5534.15 3078.34C5532.46 3071.98 5532.14 3065.34 5533.21 3058.86C5534.29 3052.37 5536.74 3046.19 5540.4 3040.73C5544.06 3035.27 5548.84 3030.65 5554.43 3027.19L5694.63 2940.33C5699.81 2937.12 5705.57 2934.97 5711.58 2934.01C5717.59 2933.04 5723.73 2933.27 5729.65 2934.69C5735.57 2936.11 5741.15 2938.69 5746.07 2942.28C5750.99 2945.87 5755.15 2950.4 5758.31 2955.61L5897.2 3184.62L6163.18 2987.89C6184.36 2976.77 6208.83 2973.66 6232.11 2979.1C6255.4 2984.55 6275.94 2998.21 6290 3017.56C6304.06 3036.92 6310.69 3060.7 6308.68 3084.55C6306.67 3108.39 6296.16 3130.72 6279.06 3147.45L6013.58 3389.82C5982.38 3420.77 5940.23 3438.13 5896.31 3438.12Z" fill="#2F2E41"/>
<path d="M6615.02 3799.8C6614.66 3799.8 6614.3 3799.8 6613.94 3799.79C6607.47 3799.63 6601.11 3798.12 6595.27 3795.34C6589.43 3792.57 6584.23 3788.6 6580.02 3783.69L6455.37 3638.15C6451.13 3633.19 6447.98 3627.39 6446.14 3621.13C6444.3 3614.86 6443.81 3608.28 6444.7 3601.81C6445.59 3595.35 6447.85 3589.14 6451.31 3583.61C6454.78 3578.08 6459.37 3573.35 6464.8 3569.73L6698.21 3414L6486.76 3159.57C6474.46 3139.05 6469.95 3114.78 6474.05 3091.2C6478.15 3067.63 6490.59 3046.31 6509.09 3031.16C6527.6 3016 6550.93 3008.01 6574.84 3008.66C6598.74 3009.3 6621.62 3018.52 6639.28 3034.65L6896.27 3286C6916.5 3304.49 6931.94 3327.62 6941.27 3353.4C6950.6 3379.18 6953.54 3406.84 6949.83 3434.01C6946.13 3461.17 6935.9 3487.04 6920.01 3509.37C6904.12 3531.71 6883.05 3549.85 6858.62 3562.25L6648.58 3785.31C6644.26 3789.88 6639.06 3793.52 6633.29 3796.02C6627.52 3798.51 6621.31 3799.79 6615.02 3799.8Z" fill="#2F2E41"/>
<path d="M6328.72 3263.53C6326.72 3263.53 6324.72 3263.4 6322.73 3263.15C6314.05 3262.09 6305.86 3258.57 6299.12 3252.99C6292.38 3247.41 6287.38 3240.02 6284.72 3231.68L6191.05 2944.28C6188.71 2937.01 6189.07 2929.14 6192.07 2922.12C6195.07 2915.1 6200.51 2909.4 6207.38 2906.08L6210.42 2904.65C6213.18 2903.33 6215.91 2902.04 6218.69 2900.8C6262.37 2880.52 6309.92 2869.95 6358.06 2869.8C6420.56 2869.91 6481.67 2888.29 6533.89 2922.68C6540.89 2927.34 6545.78 2934.57 6547.5 2942.8C6549.23 2951.04 6547.66 2959.62 6543.12 2966.71L6367.41 3242.21C6363.29 3248.75 6357.58 3254.14 6350.81 3257.87C6344.05 3261.6 6336.44 3263.55 6328.72 3263.53Z" fill="#E6E6E6"/>
<path d="M6681.73 2354.91C6737.28 2354.91 6782.31 2309.85 6782.31 2254.25C6782.31 2198.66 6737.28 2153.59 6681.73 2153.59C6626.19 2153.59 6581.16 2198.66 6581.16 2254.25C6581.16 2309.85 6626.19 2354.91 6681.73 2354.91Z" fill="#2F2E41"/>
<path d="M6336.95 2143.62C6266.3 2143.62 6198.55 2171.7 6148.59 2221.7C6098.64 2271.7 6070.57 2339.51 6070.57 2410.22V2523.01H6209.18L6275.48 2410.22L6295.37 2523.01H6716.03L6603.33 2410.22C6603.33 2339.51 6575.27 2271.7 6525.31 2221.7C6475.35 2171.7 6407.6 2143.62 6336.95 2143.62Z" fill="#2F2E41"/>
<path d="M6733.42 2185.31C6744.55 2150.51 6767.57 2120.74 6798.46 2101.24C6829.34 2081.75 6866.1 2073.77 6902.28 2078.72C6966.37 2089.44 7017.05 2141.01 7047.24 2198.6C7077.44 2256.19 7091.38 2320.65 7111.68 2382.43C7131.98 2444.21 7160.77 2506.33 7212.01 2546.33C7263.26 2586.32 7341.89 2597.17 7392.22 2556.03C7386.47 2598.91 7367.4 2638.89 7337.7 2670.32C7308 2701.76 7269.18 2723.05 7226.73 2731.19C7184.28 2739.33 7140.34 2733.91 7101.13 2715.69C7061.93 2697.47 7029.44 2667.38 7008.26 2629.66C6981.7 2582.38 6974.85 2526.95 6966.97 2473.28C6959.1 2419.61 6948.86 2364.08 6917.16 2320.08C6885.45 2276.09 6826.1 2247.35 6775.73 2267.39L6733.42 2185.31Z" fill="#2F2E41"/>
<path d="M3463.1 2338.88C3371.41 2338.87 3283.48 2302.41 3218.64 2237.51C3153.81 2172.62 3117.39 2084.62 3117.38 1992.85C3117.37 1930.26 3117.42 1882.41 3117.51 1875.6C3120.43 1661.23 3174.37 1450.64 3274.87 1261.31C3109.75 1487.54 3018.96 1759.53 3015.06 2039.67C3014.97 2046.47 3014.92 2094.32 3014.93 2156.91C3014.93 2248.68 3051.36 2336.69 3116.19 2401.58C3181.02 2466.47 3268.96 2502.93 3360.65 2502.94C3435.99 2502.91 3509.27 2478.27 3569.34 2432.76C3629.42 2387.25 3673.01 2323.36 3693.5 2250.79C3630.19 2307.6 3548.13 2338.98 3463.1 2338.88Z" fill="#3F3D56"/>
<path d="M4393.45 1427C4499.45 1432.07 4602.64 1462.81 4694.15 1516.58C4785.67 1570.35 4862.78 1645.55 4918.86 1735.72C4974.94 1825.88 5008.32 1928.33 5016.13 2034.25C5023.94 2140.17 5005.95 2246.41 4963.7 2343.83C5024.81 2272 5069.73 2187.83 5095.39 2097.05C5121.05 2006.26 5126.85 1911.01 5112.4 1817.78C5097.94 1724.56 5063.57 1635.54 5011.63 1556.81C4959.69 1478.08 4891.39 1411.49 4811.4 1361.57C4731.41 1311.65 4641.61 1279.58 4548.12 1267.55C4454.62 1255.51 4359.63 1263.8 4269.62 1291.84C4179.62 1319.87 4096.71 1367 4026.55 1430.02C3956.39 1493.03 3900.64 1570.44 3863.08 1656.98C3927.99 1580.56 4009.57 1520.08 4101.52 1480.21C4193.48 1440.33 4293.35 1422.13 4393.45 1427Z" fill="#D3D1EB"/>
<path d="M4499.81 4492.19C4406.28 4492.21 4316.48 4455.43 4249.8 4389.78C4183.12 4324.13 4144.89 4234.88 4143.38 4141.28C4139.04 3870 4136.79 3535.76 4136.79 3497.56C4136.73 3404.64 4150.1 3312.19 4176.48 3223.09L4176.35 3223.06C4191.93 3178.34 4210.74 3134.81 4232.64 3092.82C4165.42 3182.49 4111.91 3281.67 4073.9 3387.12L4074.02 3387.15C4047.64 3476.25 4034.28 3568.7 4034.34 3661.63C4034.34 3699.83 4036.58 4034.06 4040.92 4305.34C4042.44 4398.94 4080.66 4488.19 4147.34 4553.84C4214.03 4619.49 4303.82 4656.27 4397.36 4656.25C4474.48 4656.24 4549.52 4631.2 4611.22 4584.89C4672.92 4538.58 4717.96 4473.5 4739.57 4399.41C4674.03 4459.22 4588.5 4492.31 4499.81 4492.19Z" fill="#3F3D56"/>
<path d="M1297.17 5974.35L1422.77 5974.34L1482.53 5489.46L1297.14 5489.47L1297.17 5974.35Z" fill="#FFB8B8"/>
<path d="M1665.02 6091.07L1270.26 6091.09L1270.25 5938.44L1512.49 5938.43C1552.94 5938.43 1591.74 5954.51 1620.34 5983.14C1648.95 6011.76 1665.02 6050.59 1665.02 6091.07L1665.02 6091.07Z" fill="#2F2E41"/>
<path d="M846.383 5974.35L971.981 5974.34L1031.74 5489.46L846.352 5489.47L846.383 5974.35Z" fill="#FFB8B8"/>
<path d="M1214.23 6091.07L819.466 6091.09L819.459 5938.44L1061.7 5938.43C1102.15 5938.43 1140.95 5954.51 1169.55 5983.14C1198.15 6011.76 1214.23 6050.59 1214.23 6091.07L1214.23 6091.07Z" fill="#2F2E41"/>
<path d="M956.144 5825.22L833.456 5818.77C827.129 5818.43 820.932 5816.85 815.222 5814.1C809.513 5811.35 804.405 5807.5 800.194 5802.76C795.984 5798.02 792.754 5792.5 790.693 5786.5C788.632 5780.51 787.78 5774.16 788.187 5767.83L934.825 4142.94L1610.11 4325.32L1675.17 4307.55L1471.71 5746.02C1469.98 5756.84 1464.61 5766.74 1456.49 5774.1C1448.37 5781.45 1437.99 5785.81 1427.06 5786.46L1294.81 5792.63C1288.19 5793 1281.57 5791.99 1275.37 5789.67C1269.17 5787.34 1263.51 5783.76 1258.76 5779.14C1254.02 5774.51 1250.28 5768.96 1247.78 5762.82C1245.29 5756.67 1244.1 5750.08 1244.28 5743.46L1268.24 4880.12C1268.36 4876.12 1266.97 4872.23 1264.36 4869.21C1261.75 4866.19 1258.1 4864.26 1254.14 4863.8C1250.17 4863.34 1246.18 4864.37 1242.95 4866.71C1239.71 4869.05 1237.47 4872.51 1236.66 4876.42L1005.55 5787.1C1003.37 5797.9 997.512 5807.62 988.975 5814.58C980.439 5821.55 969.753 5825.33 958.739 5825.3C957.88 5825.3 957.014 5825.28 956.144 5825.22Z" fill="#2F2E41"/>
<path d="M1319.73 2813.44C1458.7 2813.44 1571.36 2700.68 1571.36 2561.59C1571.36 2422.5 1458.7 2309.75 1319.73 2309.75C1180.75 2309.75 1068.09 2422.5 1068.09 2561.59C1068.09 2700.68 1180.75 2813.44 1319.73 2813.44Z" fill="#FFB8B8"/>
<path d="M900.769 3301.5L928.437 3898.97L938.439 4116.34C938.838 4125.8 942.048 4134.93 947.659 4142.55C953.27 4150.18 961.026 4155.96 969.937 4159.15L1618.84 4394.41C1624.08 4396.36 1629.63 4397.33 1635.22 4397.28C1641.62 4397.32 1647.95 4396.06 1653.84 4393.58C1659.74 4391.11 1665.08 4387.48 1669.53 4382.89C1673.99 4378.31 1677.49 4372.88 1679.8 4366.91C1682.12 4360.95 1683.21 4354.58 1683.01 4348.19L1656.4 3273.92C1654.66 3185.78 1622.24 3101.01 1564.74 3034.23C1507.24 2967.45 1428.26 2922.84 1341.42 2908.09C1335.15 2907.13 1328.76 2906.17 1322.37 2905.32C1268.53 2898.63 1213.87 2903.83 1162.24 2920.56C1110.62 2937.28 1063.28 2965.13 1023.57 3002.13C982.444 3039.98 950.129 3086.42 928.91 3138.15C907.69 3189.88 898.083 3245.64 900.768 3301.5L900.769 3301.5Z" fill="#CCCCCC"/>
<path d="M1928.81 4275.19C1913.47 4270.42 1899.44 4262.13 1887.87 4250.98C1876.29 4239.82 1867.48 4226.12 1862.13 4210.95C1856.79 4195.78 1855.06 4179.57 1857.09 4163.62C1859.12 4147.66 1864.84 4132.4 1873.81 4119.06L1653.76 3826.21L1843.65 3814.45L2023.5 4094.34C2042.75 4109.24 2056.15 4130.45 2061.34 4154.25C2066.54 4178.05 2063.19 4202.91 2051.9 4224.49C2040.6 4246.06 2022.07 4262.97 1999.57 4272.24C1977.06 4281.51 1952.01 4282.55 1928.81 4275.19H1928.81Z" fill="#FFB8B8"/>
<path d="M1774.1 4066.07C1768.27 4063.7 1762.96 4060.19 1758.5 4055.76C1754.03 4051.33 1750.48 4046.05 1748.06 4040.24L1416.54 3249.72C1410.04 3234.25 1406.64 3217.64 1406.55 3200.85C1406.47 3184.06 1409.68 3167.41 1416.03 3151.87C1422.37 3136.32 1431.71 3122.18 1443.51 3110.25C1455.32 3098.32 1469.36 3088.83 1484.83 3082.33C1500.3 3075.84 1516.89 3072.45 1533.67 3072.38C1550.45 3072.3 1567.07 3075.53 1582.6 3081.89C1598.13 3088.25 1612.25 3097.61 1624.16 3109.44C1636.08 3121.26 1645.54 3135.32 1652.02 3150.81L1983.55 3941.33C1988.45 3953.05 1988.5 3966.24 1983.7 3978C1978.89 3989.76 1969.63 3999.14 1957.93 4004.07L1810.75 4065.89C1804.95 4068.34 1798.73 4069.62 1792.44 4069.65C1786.15 4069.68 1779.91 4068.46 1774.1 4066.07L1774.1 4066.07Z" fill="#CCCCCC"/>
<path d="M1238.82 4038.18L1557.24 3427.99C1563.38 3416.25 1573.92 3407.44 1586.55 3403.47C1599.18 3399.5 1612.86 3400.71 1624.6 3406.83L2086.79 3648.41C2098.51 3654.56 2107.32 3665.11 2111.29 3677.75C2115.25 3690.39 2114.04 3704.08 2107.93 3715.83L1789.51 4326.03C1783.37 4337.76 1772.83 4346.58 1760.2 4350.55C1747.57 4354.51 1733.88 4353.31 1722.15 4347.19L1259.96 4105.6C1248.24 4099.46 1239.43 4088.91 1235.46 4076.27C1231.5 4063.63 1232.71 4049.93 1238.82 4038.18Z" fill="#3F3D56"/>
<path d="M1452.37 3759.4C1446.7 3744.35 1437.61 3730.83 1425.8 3719.92C1413.99 3709.01 1399.8 3701.02 1384.35 3696.57C1368.91 3692.13 1352.64 3691.36 1336.85 3694.33C1321.05 3697.3 1306.17 3703.92 1293.39 3713.66L988.297 3511.11L987.778 3701.52L1277.58 3864.68C1293.57 3883.03 1315.52 3895.17 1339.56 3898.95C1363.6 3902.73 1388.21 3897.92 1409.06 3885.36C1429.91 3872.8 1445.68 3853.29 1453.6 3830.26C1461.52 3807.23 1461.08 3782.14 1452.37 3759.4Z" fill="#FFB8B8"/>
<path d="M1066.63 3802.22L817.29 3604.55C790.317 3595.49 765.944 3580.01 746.264 3559.44C726.584 3538.87 712.185 3513.83 704.302 3486.47C696.42 3459.11 695.289 3430.24 701.008 3402.34C706.727 3374.45 719.125 3348.36 737.137 3326.31L963.53 3029.36C979.262 3010.12 1001.39 2997.19 1025.86 2992.93C1050.34 2988.67 1075.53 2993.37 1096.82 3006.17C1118.12 3018.97 1134.11 3039.01 1141.86 3062.63C1149.61 3086.25 1148.6 3111.88 1139.03 3134.82L959.901 3428.08L1223.14 3553.04C1229.27 3555.95 1234.7 3560.12 1239.09 3565.28C1243.48 3570.45 1246.73 3576.49 1248.62 3583C1250.5 3589.51 1250.99 3596.35 1250.04 3603.06C1249.09 3609.78 1246.72 3616.21 1243.1 3621.94L1136.84 3790.25C1133.25 3795.93 1128.51 3800.79 1122.92 3804.52C1117.33 3808.25 1111.02 3810.77 1104.4 3811.9C1104.14 3811.94 1103.87 3811.99 1103.61 3812.03C1097.1 3813.01 1090.46 3812.65 1084.1 3810.96C1077.74 3809.27 1071.8 3806.3 1066.63 3802.22Z" fill="#CCCCCC"/>
<path d="M1129.58 2730.23C1128.51 2727.07 1128.16 2723.7 1128.58 2720.39C1129 2717.07 1130.18 2713.9 1132.01 2711.11C1133.85 2708.32 1136.3 2705.99 1139.17 2704.29C1142.05 2702.59 1145.28 2701.58 1148.6 2701.32C1155.42 2701.69 1162.09 2703.44 1168.21 2706.47C1174.33 2709.49 1179.78 2713.72 1184.22 2718.91C1193.32 2729.42 1203.93 2738.53 1215.68 2745.95C1227.86 2752.09 1244.37 2751.22 1251.3 2739.51C1257.82 2728.51 1253.36 2713.79 1249.41 2701.02C1239.37 2668.53 1233.76 2634.83 1232.71 2600.84C1231.58 2562.9 1236.92 2523.3 1257.91 2493.71C1285 2455.51 1333.44 2441.01 1379.27 2442.06C1425.11 2443.12 1470.21 2457.28 1515.61 2466.23C1531.28 2469.32 1549.71 2470.9 1560.19 2458.74C1571.34 2445.81 1567.25 2424.89 1562.5 2407.43C1550.2 2362.14 1537.15 2315.31 1508.56 2278.72C1477.65 2240.71 1433.5 2215.83 1384.99 2209.1C1338.43 2203.33 1291.15 2208.7 1247.07 2224.77C1175.23 2247.43 1112.03 2291.5 1065.9 2351.08C1018.35 2414.45 997.799 2494.08 1008.75 2572.57C1019.45 2640.93 1055.64 2702.69 1110.03 2745.39L1129.58 2730.23Z" fill="#2F2E41"/>
<path d="M4316.66 5976.36C4249.71 5947.18 4190.45 5902.82 4143.57 5846.79C4096.68 5790.76 4063.44 5724.6 4046.48 5653.51C4029.52 5582.42 4029.3 5508.37 4045.84 5437.18C4062.37 5366 4095.21 5299.63 4141.77 5243.32C4087.79 5282.76 4042.82 5333.24 4009.83 5391.41C3976.84 5449.58 3956.58 5514.1 3950.41 5580.7C3944.24 5647.3 3952.3 5714.45 3974.04 5777.7C3995.78 5840.94 4030.72 5898.84 4076.53 5947.54C4122.33 5996.24 4177.97 6034.63 4239.73 6060.16C4301.5 6085.7 4367.99 6097.8 4434.78 6095.65C4501.58 6093.5 4567.15 6077.16 4627.16 6047.71C4687.16 6018.26 4740.22 5976.38 4782.81 5924.84C4716.38 5973.43 4638.38 6003.76 4556.6 6012.8C4474.81 6021.84 4392.08 6009.28 4316.66 5976.36Z" fill="#B4B1DB"/>
</g>
<defs>
<clipPath id="clip0">
<rect width="8654.01" height="6103.74" fill="white" transform="translate(0.722656 0.597656)"/>
</clipPath>
</defs>
</svg>
