<svg width="30" height="30" viewBox="0 0 58 73" fill="none" xmlns="http://www.w3.org/2000/svg">
<path d="M58 43.9141C58 49.0909 56.6262 54.1752 54.0268 58.6174C53.2322 59.9753 51.4897 60.4303 50.1358 59.6333C48.7815 58.8358 48.3278 57.0886 49.123 55.7308C51.2103 52.163 52.3137 48.0767 52.3137 43.9141V35.3594C52.3137 33.7871 51.0382 32.5078 49.4706 32.5078H8.52941C6.9618 32.5078 5.68627 33.7871 5.68627 35.3594V43.9141C5.68627 56.8074 16.1448 67.2969 29 67.2969C32.801 67.2969 36.4238 66.4097 39.7678 64.6592C41.16 63.9307 42.8775 64.472 43.6038 65.8683C44.3302 67.2646 43.7904 68.9872 42.3988 69.7157C38.293 71.8644 33.6595 73 29 73C13.0096 73 0 59.9519 0 43.9141V35.3594C0 30.642 3.82602 26.8047 8.52941 26.8047H13.2206V13.9688C13.2206 6.2662 19.5977 0 27.4363 0H30.4216C38.2602 0 44.6373 6.2662 44.6373 13.9688V18.25C44.6373 19.825 43.3645 21.1016 41.7941 21.1016C40.2237 21.1016 38.951 19.825 38.951 18.25V13.9688C38.951 9.41127 35.125 5.70312 30.4216 5.70312H27.4363C22.7329 5.70312 18.9069 9.41127 18.9069 13.9688V26.8047H49.4706C54.174 26.8047 58 30.642 58 35.3594V43.9141ZM28.995 58.457C30.5648 58.457 31.8381 57.1805 31.8381 55.6055V49.3526C33.2941 48.4147 34.2598 46.7768 34.2598 44.9121C34.2598 41.9987 31.9048 39.6367 29 39.6367C26.0952 39.6367 23.7402 41.9987 23.7402 44.9121C23.7402 46.7723 24.7014 48.4069 26.1519 49.346V55.6055C26.1519 57.1805 27.4246 58.457 28.995 58.457Z" fill="#224587"/>
<path d="M58 43.9141C58 49.0909 56.6262 54.1752 54.0268 58.6174C53.2322 59.9753 51.4897 60.4303 50.1358 59.6333C48.7815 58.8358 48.3278 57.0886 49.123 55.7308C51.2103 52.163 52.3137 48.0767 52.3137 43.9141V35.3594C52.3137 33.7871 51.0382 32.5078 49.4706 32.5078H8.52941C6.9618 32.5078 5.68627 33.7871 5.68627 35.3594V43.9141C5.68627 56.8074 16.1448 67.2969 29 67.2969C32.801 67.2969 36.4238 66.4097 39.7678 64.6592C41.16 63.9307 42.8775 64.472 43.6038 65.8683C44.3302 67.2646 43.7904 68.9872 42.3988 69.7157C38.293 71.8644 33.6595 73 29 73C13.0096 73 0 59.9519 0 43.9141V35.3594C0 30.642 3.82602 26.8047 8.52941 26.8047H13.2206V13.9688C13.2206 6.2662 19.5977 0 27.4363 0H30.4216C38.2602 0 44.6373 6.2662 44.6373 13.9688V18.25C44.6373 19.825 43.3645 21.1016 41.7941 21.1016C40.2237 21.1016 38.951 19.825 38.951 18.25V13.9688C38.951 9.41127 35.125 5.70312 30.4216 5.70312H27.4363C22.7329 5.70312 18.9069 9.41127 18.9069 13.9688V26.8047H49.4706C54.174 26.8047 58 30.642 58 35.3594V43.9141ZM28.995 58.457C30.5648 58.457 31.8381 57.1805 31.8381 55.6055V49.3526C33.2941 48.4147 34.2598 46.7768 34.2598 44.9121C34.2598 41.9987 31.9048 39.6367 29 39.6367C26.0952 39.6367 23.7402 41.9987 23.7402 44.9121C23.7402 46.7723 24.7014 48.4069 26.1519 49.346V55.6055C26.1519 57.1805 27.4246 58.457 28.995 58.457Z" stroke="black"/>
</svg>
