<svg width="300" height="300" viewBox="0 0 8951 6475" fill="none" xmlns="http://www.w3.org/2000/svg">
<g clip-path="url(#clip0)">
<path d="M1327.65 4589.5C1320.3 4578.38 1310.61 4569.01 1299.26 4562.04C1287.9 4555.07 1275.16 4550.68 1261.92 4549.17C1248.68 4547.67 1235.28 4549.08 1222.64 4553.32C1210.01 4557.55 1198.46 4564.51 1188.81 4573.69L901.047 4425.1L918.936 4592.5L1189.46 4707.94C1205.96 4723.14 1227.46 4731.76 1249.88 4732.16C1272.31 4732.57 1294.1 4724.73 1311.14 4710.13C1328.17 4695.53 1339.26 4675.19 1342.3 4652.96C1345.34 4630.72 1340.13 4608.15 1327.65 4589.5H1327.65Z" fill="#A0616A"/>
<path d="M1071.91 4656.88C1066.7 4659.27 1061.05 4660.54 1055.32 4660.6C1049.59 4660.66 1043.92 4659.51 1038.66 4657.23L765.326 4538.61C671.866 4498.07 596.309 4424.94 552.709 4332.84L409.01 4029.39C398.405 4015.76 390.59 4000.17 386.011 3983.52C381.432 3966.87 380.179 3949.47 382.325 3932.33C384.47 3915.19 389.972 3898.65 398.515 3883.64C407.057 3868.63 418.474 3855.45 432.111 3844.86C445.749 3834.26 461.339 3826.46 477.992 3821.9C494.645 3817.34 512.033 3816.11 529.162 3818.28C546.29 3820.45 562.824 3825.97 577.817 3834.54C592.811 3843.1 605.969 3854.54 616.541 3868.19L869.128 4337.03L1102.36 4513.28C1109.04 4518.35 1113.99 4525.35 1116.57 4533.33C1119.14 4541.31 1119.2 4549.88 1116.74 4557.9L1093.85 4631.87C1091.39 4639.8 1086.57 4646.8 1080.04 4651.92C1077.53 4653.89 1074.81 4655.55 1071.91 4656.88Z" fill="#CCCCCC"/>
<path d="M402.687 3672.52C525.612 3672.52 625.263 3572.83 625.263 3449.85C625.263 3326.88 525.612 3227.18 402.687 3227.18C279.761 3227.18 180.11 3326.88 180.11 3449.85C180.11 3572.83 279.761 3672.52 402.687 3672.52Z" fill="#A0616A"/>
<path d="M492.843 6370.88L603.936 6370.87L656.796 5942.16L492.815 5942.17L492.843 6370.88Z" fill="#A0616A"/>
<path d="M818.208 6474.06L469.035 6474.08L469.029 6339.11L683.294 6339.1C719.074 6339.1 753.389 6353.32 778.69 6378.63C803.991 6403.94 818.206 6438.27 818.208 6474.06L818.208 6474.06Z" fill="#2F2E41"/>
<path d="M130.356 6370.88L241.45 6370.87L294.309 5942.16L130.329 5942.17L130.356 6370.88Z" fill="#A0616A"/>
<path d="M455.721 6474.06L106.548 6474.08L106.542 6339.11L320.807 6339.1C356.587 6339.1 390.902 6353.32 416.203 6378.63C441.504 6403.94 455.719 6438.27 455.721 6474.06L455.721 6474.06Z" fill="#2F2E41"/>
<path d="M91.5586 6248.15C87.7305 6243.78 84.8809 6238.64 83.2008 6233.08C81.5206 6227.51 81.0487 6221.65 81.8167 6215.89L276.333 4756.41L759.606 4838.51L811.183 4807.55L677.81 6192.32C676.701 6201.67 672.402 6210.35 665.64 6216.9C658.878 6223.45 650.066 6227.46 640.69 6228.26L494.356 6240.46C488.539 6240.95 482.684 6240.18 477.189 6238.21C471.694 6236.23 466.687 6233.1 462.506 6229.03C458.324 6224.95 455.067 6220.02 452.954 6214.58C450.84 6209.13 449.92 6203.3 450.256 6197.47L488.142 5537.99C488.209 5536.87 487.858 5535.77 487.157 5534.89C486.456 5534.01 485.455 5533.43 484.348 5533.25C483.24 5533.07 482.105 5533.3 481.163 5533.91C480.22 5534.52 479.536 5535.46 479.243 5536.54L291.809 6231.9C289.466 6240.56 284.341 6248.2 277.226 6253.65C270.111 6259.11 261.4 6262.07 252.437 6262.08H122.241C116.43 6262.08 110.686 6260.84 105.394 6258.44C100.103 6256.04 95.3852 6252.53 91.5586 6248.15Z" fill="#2F2E41"/>
<path d="M426.246 4858.57C420.699 4853.54 413.568 4850.62 406.092 4850.31C398.615 4850 391.266 4852.31 385.32 4856.86L288.7 4932.04C283.442 4936.15 277.258 4938.89 270.69 4940.05C264.123 4941.2 257.372 4940.73 251.031 4938.66C244.69 4936.6 238.953 4933.01 234.322 4928.21C229.692 4923.41 226.31 4917.54 224.473 4911.13C177.08 4745.08 69.7054 4327.12 96.1574 4032.95C111.151 3866.2 255.082 3739.47 417.004 3750.1C527.704 3757.49 600.531 3821.37 633.463 3939.98C714.321 4231.2 803.182 4765.38 820.174 4869.52C821.515 4877.6 820.384 4885.89 816.929 4893.32C813.474 4900.74 807.856 4906.95 800.813 4911.12C755.098 4938.58 702.866 4953.28 649.548 4953.71C585.033 4953.71 507.677 4931.24 426.246 4858.57Z" fill="#CCCCCC"/>
<path d="M462.702 4962.16C463.784 4948.88 461.941 4935.52 457.304 4923.03C452.667 4910.53 445.348 4899.21 435.862 4889.85C426.376 4880.49 414.955 4873.33 402.403 4868.86C389.85 4864.4 376.472 4862.74 363.21 4864.01L228.439 4569.43L139.253 4712.19L280.907 4970.04C284.512 4992.19 296.112 5012.25 313.51 5026.41C330.908 5040.57 352.894 5047.86 375.303 5046.88C397.711 5045.91 418.985 5036.75 435.093 5021.14C451.202 5005.52 461.025 4984.54 462.702 4962.16Z" fill="#A0616A"/>
<path d="M219.907 4857.3C214.335 4855.96 209.107 4853.47 204.562 4849.98C200.017 4846.49 196.257 4842.09 193.525 4837.05L51.6191 4574.96C3.08921 4485.36 -11.2556 4381.17 11.2531 4281.78L85.3678 3954.29C85.435 3937.02 88.9038 3919.93 95.5759 3904C102.248 3888.08 111.993 3873.62 124.253 3861.46C136.513 3849.3 151.048 3839.68 167.027 3833.15C183.006 3826.61 200.116 3823.29 217.378 3823.38C234.641 3823.46 251.718 3826.95 267.632 3833.64C283.547 3840.33 297.987 3850.09 310.128 3862.37C322.269 3874.65 331.872 3889.2 338.388 3905.19C344.904 3921.18 348.206 3938.3 348.105 3955.57L257.651 4480.42L332.447 4763.11C334.574 4771.22 334.159 4779.78 331.261 4787.65C328.362 4795.52 323.118 4802.3 316.239 4807.09L252.595 4851.16C245.768 4855.89 237.663 4858.42 229.362 4858.41C226.177 4858.42 223.003 4858.04 219.907 4857.3Z" fill="#CCCCCC"/>
<path opacity="0.2" d="M330.049 4176.91L248.489 4521.42L366.298 4811.53L284.738 4530.49L330.049 4176.91Z" fill="black"/>
<path d="M275.674 3632.96C255.875 3633.32 236.2 3629.76 217.785 3622.48C209.682 3619.36 201.271 3616.79 193.183 3613.66C121.758 3586.06 74.7075 3509.96 73.0224 3433.37C71.3373 3356.79 110.981 3282.46 169.848 3233.47C228.716 3184.48 304.964 3159.33 381.314 3153.52C463.556 3147.25 556.162 3168.12 602.117 3236.64C614.35 3254.87 622.905 3277 615.656 3299.02C613.485 3305.67 609.608 3311.63 604.412 3316.3C583.889 3334.57 563.428 3320.83 542.507 3319.62C513.75 3317.95 487.922 3341.24 478.639 3368.52C469.356 3395.8 473.442 3425.83 480.938 3453.65C486.648 3470.4 490.248 3487.79 491.654 3505.42C492.259 3514.26 490.596 3523.11 486.824 3531.13C483.052 3539.15 477.295 3546.08 470.099 3551.25C452.129 3562.11 428.531 3555.83 410.551 3544.98C392.571 3534.13 377.035 3519.04 357.614 3511.06C338.193 3503.08 312.1 3504.85 300.796 3522.55C297.203 3528.99 294.772 3536.01 293.612 3543.3C283.478 3589.49 285.807 3586.77 275.673 3632.96L275.674 3632.96Z" fill="#2F2E41"/>
<path d="M1363.21 2069.13H1363.22H6863.96C6890.53 2069.13 6916 2079.68 6934.8 2098.46C6953.59 2117.24 6964.16 2142.72 6964.19 2169.29V2169.3V2169.31V2670.38V2691.5H6943.07H6920.51H6899.39V2670.38V2169.34C6899.37 2159.95 6895.63 2150.94 6888.99 2144.31M1363.21 2069.13L6888.99 2144.31M1363.21 2069.13L1363.2 2069.13C1336.65 2069.16 1311.2 2079.72 1292.42 2098.5C1273.65 2117.28 1263.1 2142.74 1263.07 2169.29L1263.07 2169.3V2169.31V5898.32V5898.33L1263.07 5898.34C1263.1 5924.89 1273.65 5950.35 1292.42 5969.13C1311.2 5987.91 1336.65 5998.47 1363.2 5998.49H1363.21H1363.22H6863.96C6878.44 5998.49 6892.75 5995.35 6905.9 5989.28C6918.94 5983.26 6930.53 5974.5 6939.88 5963.61C6940.51 5962.91 6941.11 5962.19 6941.68 5961.46C6942.01 5961.03 6942.33 5960.6 6942.64 5960.17C6948.44 5952.95 6953.15 5944.92 6956.63 5936.34C6961.66 5924.27 6964.23 5911.32 6964.19 5898.25V3576.98V3555.86H6943.07H6920.51H6899.39V3576.98V5898.32V5898.33V5898.33C6899.39 5905.2 6897.38 5911.9 6893.59 5917.62C6890.14 5922.75 6885.48 5926.94 6880.02 5929.82C6875.06 5932.36 6869.57 5933.69 6864 5933.68H6863.98H6863.96H1363.24C1353.87 5933.67 1344.88 5929.94 1338.25 5923.31C1331.62 5916.68 1327.89 5907.68 1327.88 5898.3V2169.32C1327.89 2159.94 1331.62 2150.95 1338.25 2144.32C1344.88 2137.69 1353.86 2133.96 1363.23 2133.95M1363.21 2069.13L1363.23 2133.95M6888.99 2144.31C6882.35 2137.67 6873.34 2133.95 6863.96 2133.95H1363.23M6888.99 2144.31L1363.23 2133.95" fill="#ECEBF5" stroke="#FFFAFA" stroke-width="42.2404"/>
<path d="M1300.72 2424.45V2412.41H6926.45V2424.45H1300.72Z" fill="#3F3D56" stroke="#FFFBFB" stroke-width="10.5601"/>
<path d="M1487.46 2327.59C1524.89 2327.59 1555.23 2297.24 1555.23 2259.79C1555.23 2222.35 1524.89 2191.99 1487.46 2191.99C1450.03 2191.99 1419.69 2222.35 1419.69 2259.79C1419.69 2297.24 1450.03 2327.59 1487.46 2327.59Z" fill="#CCCCCC"/>
<path d="M1682.3 2327.59C1719.73 2327.59 1750.07 2297.24 1750.07 2259.79C1750.07 2222.35 1719.73 2191.99 1682.3 2191.99C1644.87 2191.99 1614.53 2222.35 1614.53 2259.79C1614.53 2297.24 1644.87 2327.59 1682.3 2327.59Z" fill="#CCCCCC"/>
<path d="M1877.14 2327.59C1914.57 2327.59 1944.91 2297.24 1944.91 2259.79C1944.91 2222.35 1914.57 2191.99 1877.14 2191.99C1839.71 2191.99 1809.37 2222.35 1809.37 2259.79C1809.37 2297.24 1839.71 2327.59 1877.14 2327.59Z" fill="#CCCCCC"/>
<path d="M3238.38 5520.31C3215.05 5520.2 3192.12 5514.27 3171.66 5503.06C3151.2 5491.85 3133.85 5475.71 3121.2 5456.11C3108.54 5436.5 3100.97 5414.04 3099.17 5390.77C3097.38 5367.5 3101.41 5344.15 3110.91 5322.84L3272.37 4962.47C3145.21 4849.95 3043.45 4711.64 2973.86 4556.74C2904.26 4401.84 2868.43 4233.89 2868.73 4064.07C2868.73 3400.57 3408.29 2860.77 4071.52 2860.77C4734.75 2860.77 5274.31 3400.57 5274.31 4064.07C5274.31 4727.56 4734.75 5267.36 4071.52 5267.36C3955.5 5267.25 3840.11 5250.24 3728.99 5216.89L3316.93 5495.96C3293.78 5511.77 3266.41 5520.25 3238.38 5520.31ZM4071.52 3028.67C3856.87 3028.55 3647.5 3095.23 3472.44 3219.48C3297.37 3343.72 3165.27 3519.38 3094.46 3722.1C3023.65 3924.81 3017.63 4144.54 3077.24 4350.83C3136.85 4557.12 3259.13 4739.75 3427.14 4873.4L3478 4913.99L3304.29 5301.77L3702.94 5031.77L3742.3 5045C3884.5 5092.79 4035.39 5109.07 4184.51 5092.73C4333.63 5076.38 4477.41 5027.79 4605.89 4950.33C4734.37 4872.86 4844.48 4768.37 4928.58 4644.1C5012.68 4519.83 5068.77 4378.76 5092.95 4230.65C5117.13 4082.54 5108.83 3930.94 5068.63 3786.35C5028.42 3641.77 4957.27 3507.66 4860.11 3393.33C4762.95 3278.99 4642.09 3187.15 4505.92 3124.19C4369.76 3061.22 4221.53 3028.63 4071.52 3028.67Z" fill="#CFCCED"/>
<path d="M4071.52 4176C4164.21 4176 4239.35 4100.83 4239.35 4008.1C4239.35 3915.37 4164.21 3840.2 4071.52 3840.2C3978.83 3840.2 3903.69 3915.37 3903.69 4008.1C3903.69 4100.83 3978.83 4176 4071.52 4176Z" fill="#F5F4FF"/>
<path d="M3596 4176C3688.69 4176 3763.83 4100.83 3763.83 4008.1C3763.83 3915.37 3688.69 3840.2 3596 3840.2C3503.3 3840.2 3428.16 3915.37 3428.16 4008.1C3428.16 4100.83 3503.3 4176 3596 4176Z" fill="#F5F4FF"/>
<path d="M4547.04 4176C4639.74 4176 4714.88 4100.83 4714.88 4008.1C4714.88 3915.37 4639.74 3840.2 4547.04 3840.2C4454.35 3840.2 4379.21 3915.37 4379.21 4008.1C4379.21 4100.83 4454.35 4176 4547.04 4176Z" fill="white"/>
<path d="M8291.96 3343.55H6697.02C6677.79 3343.55 6659.35 3335.91 6645.76 3322.31C6632.16 3308.71 6624.52 3290.26 6624.52 3271.02C6624.52 3251.79 6632.16 3233.34 6645.76 3219.74C6659.35 3206.14 6677.79 3198.5 6697.02 3198.5H8291.96C8311.19 3198.5 8329.63 3206.14 8343.23 3219.74C8356.82 3233.34 8364.46 3251.79 8364.46 3271.02C8364.46 3290.26 8356.82 3308.71 8343.23 3322.31C8329.63 3335.91 8311.19 3343.55 8291.96 3343.55Z" fill="#CCCCCC"/>
<path d="M7249.81 3035.31H6697.02C6677.79 3035.31 6659.35 3027.66 6645.76 3014.06C6632.16 3000.46 6624.52 2982.01 6624.52 2962.78C6624.52 2943.54 6632.16 2925.09 6645.76 2911.49C6659.35 2897.89 6677.79 2890.25 6697.02 2890.25H7249.81C7269.04 2890.25 7287.48 2897.89 7301.07 2911.49C7314.67 2925.09 7322.31 2943.54 7322.31 2962.78C7322.31 2982.01 7314.67 3000.46 7301.07 3014.06C7287.48 3027.66 7269.04 3035.31 7249.81 3035.31Z" fill="#CCCCCC"/>
<path d="M5974.61 3431.93C6144.78 3431.93 6282.73 3293.92 6282.73 3123.69C6282.73 2953.45 6144.78 2815.44 5974.61 2815.44C5804.44 2815.44 5666.5 2953.45 5666.5 3123.69C5666.5 3293.92 5804.44 3431.93 5974.61 3431.93Z" fill="#0F3D67"/>
<path d="M5579.13 2649.62L5579.12 2649.62C5537.58 2649.67 5497.76 2666.21 5468.39 2695.59C5439.01 2724.98 5422.49 2764.82 5422.43 2806.37V2806.38L5422.43 3440.99L5422.43 3441C5422.49 3482.55 5439.01 3522.39 5468.39 3551.78C5497.76 3581.16 5537.58 3597.7 5579.12 3597.76H5579.13H8451.83C8493.38 3597.7 8533.2 3581.16 8562.57 3551.78C8591.95 3522.39 8608.47 3482.55 8608.53 3441V2806.38C8608.47 2764.82 8591.95 2724.98 8562.57 2695.59C8533.2 2666.21 8493.38 2649.67 8451.84 2649.62L5579.13 2649.62ZM8585.13 3440.99C8585.08 3476.35 8571.03 3510.24 8546.04 3535.24C8521.05 3560.24 8487.17 3574.3 8451.83 3574.34H5579.13C5543.79 3574.3 5509.91 3560.24 5484.92 3535.24C5459.93 3510.24 5445.88 3476.35 5445.83 3440.99V2806.38C5445.88 2771.03 5459.93 2737.13 5484.92 2712.13C5509.91 2687.13 5543.79 2673.07 5579.13 2673.03L8451.83 2673.03C8487.17 2673.07 8521.05 2687.13 8546.04 2712.13C8571.03 2737.13 8585.08 2771.03 8585.13 2806.38V3440.99Z" fill="#2E4CB7" stroke="black" stroke-width="5.28005"/>
<path d="M8587.77 2906.1C8702.88 2906.1 8796.2 2812.75 8796.2 2697.59C8796.2 2582.42 8702.88 2489.07 8587.77 2489.07C8472.65 2489.07 8379.34 2582.42 8379.34 2697.59C8379.34 2812.75 8472.65 2906.1 8587.77 2906.1Z" fill="#0F3D67"/>
<path d="M8581.36 2814.85C8580.52 2814.01 8579.85 2813.01 8579.39 2811.91C8578.94 2810.81 8578.7 2809.63 8578.71 2808.44V2577.66C8578.71 2575.26 8579.66 2572.95 8581.36 2571.25C8583.06 2569.55 8585.36 2568.6 8587.77 2568.6C8590.17 2568.6 8592.47 2569.55 8594.17 2571.25C8595.87 2572.95 8596.83 2575.26 8596.83 2577.66V2808.44C8596.83 2810.24 8596.3 2811.99 8595.3 2813.48C8594.31 2814.97 8592.89 2816.13 8591.24 2816.82C8589.58 2817.5 8587.76 2817.68 8586 2817.33C8584.24 2816.98 8582.63 2816.12 8581.36 2814.85Z" fill="white"/>
<path d="M8466.02 2699.46C8464.75 2698.2 8463.89 2696.58 8463.54 2694.82C8463.19 2693.06 8463.37 2691.24 8464.05 2689.58C8464.74 2687.93 8465.9 2686.51 8467.39 2685.52C8468.88 2684.52 8470.63 2683.99 8472.43 2683.99H8703.11C8705.51 2683.99 8707.82 2684.94 8709.52 2686.64C8711.22 2688.34 8712.17 2690.65 8712.17 2693.05C8712.17 2695.46 8711.22 2697.76 8709.52 2699.46C8707.82 2701.16 8705.51 2702.12 8703.11 2702.12H8472.43C8471.24 2702.12 8470.06 2701.89 8468.96 2701.43C8467.86 2700.98 8466.86 2700.31 8466.02 2699.46Z" fill="white"/>
<path d="M8837.28 5469.1H8402.21C8402.21 5481.61 7953.81 5491.77 7953.81 5491.77C7946.77 5497.07 7940.36 5503.15 7934.69 5509.9C7917.66 5530.22 7908.35 5555.91 7908.41 5582.43V5600.56C7908.42 5630.61 7920.36 5659.43 7941.6 5680.68C7962.84 5701.93 7991.64 5713.87 8021.68 5713.88H8837.28C8867.31 5713.86 8896.11 5701.91 8917.35 5680.66C8938.59 5659.41 8950.53 5630.61 8950.56 5600.56V5582.43C8950.52 5552.38 8938.57 5523.58 8917.33 5502.34C8896.1 5481.1 8867.31 5469.14 8837.28 5469.1Z" fill="#3F3D56"/>
<path d="M8492.87 5709.38H8375.06V6470.92H8492.87V5709.38Z" fill="#3F3D56"/>
<path d="M8828.17 6466.78C8828.17 6479.51 8649.65 6471.71 8429.44 6471.71C8209.22 6471.71 8030.7 6479.51 8030.7 6466.78C8030.7 6454.05 8209.22 6353.06 8429.44 6353.06C8649.65 6353.06 8828.17 6454.05 8828.17 6466.78Z" fill="#3F3D56"/>
<path d="M8471.77 4448.57C8611.9 4448.57 8725.51 4334.92 8725.51 4194.72C8725.51 4054.53 8611.9 3940.88 8471.77 3940.88C8331.63 3940.88 8218.02 4054.53 8218.02 4194.72C8218.02 4334.92 8331.63 4448.57 8471.77 4448.57Z" fill="#2F2E41"/>
<path d="M7840.31 6366.62L7729.21 6366.61L7676.35 5937.9L7840.33 5937.91L7840.31 6366.62Z" fill="#FFB8B8"/>
<path d="M7649.85 6334.86H7864.11V6469.83H7514.94C7514.94 6434.03 7529.16 6399.7 7554.46 6374.39C7579.76 6349.08 7614.07 6334.86 7649.85 6334.86Z" fill="#2F2E41"/>
<path d="M7666.88 6304.58L7560.88 6271.3L7638.74 5846.43L7795.19 5895.54L7666.88 6304.58Z" fill="#FFB8B8"/>
<path d="M7494.67 6217.24L7699.1 6281.42L7658.71 6410.19L7325.55 6305.6C7336.27 6271.45 7360.1 6242.95 7391.82 6226.38C7423.53 6209.81 7460.53 6206.52 7494.67 6217.24Z" fill="#2F2E41"/>
<path d="M8539.73 5394.79C8537.17 5373.19 8532.56 5351.88 8525.96 5331.15L8505.21 5305.04L8451.2 5237.22L8448.84 5237.31C8444.85 5237.49 8428.27 5238.4 8402.62 5240.4H8402.35C8386.49 5241.66 8367.1 5243.3 8345.08 5245.38C8339.28 5246.02 8333.21 5246.56 8326.95 5247.19V5341.84H8440.23C8445.74 5341.85 8451.05 5343.86 8455.19 5347.5C8459.32 5351.13 8461.99 5356.15 8462.71 5361.61C8462.79 5362.6 8462.89 5363.51 8462.89 5364.51C8462.88 5370.52 8460.5 5376.28 8456.25 5380.53C8452 5384.78 8446.24 5387.17 8440.23 5387.17H7782.32C7773.93 5392.74 7765.88 5398.8 7758.21 5405.31C7735.03 5423.25 7718.33 5448.27 7710.63 5476.56C7672.21 5645.55 7602.16 5960.69 7581.5 6053.25C7580 6060.22 7580.34 6067.47 7582.48 6074.27C7584.63 6081.07 7588.5 6087.2 7593.73 6092.05C7597.59 6095.65 7602.12 6098.45 7607.05 6100.3L7688.8 6130.94C7692.15 6132.19 7695.65 6133.01 7699.22 6133.39C7699.67 6133.39 7700.03 6133.48 7700.49 6133.48C7701.33 6133.56 7702.18 6133.59 7703.02 6133.57C7711.29 6133.54 7719.35 6131.01 7726.16 6126.32C7732.96 6121.63 7738.2 6115 7741.17 6107.28L7805.7 5937.93L7905.11 5676.83L7944.44 5573.57C7990.02 5584.27 8372.45 5668.94 8500.49 5532.5C8513.13 5519.06 8523.09 5503.34 8529.86 5486.17C8540.63 5456.99 8544.03 5425.6 8539.73 5394.79Z" fill="#2F2E41"/>
<path d="M8650.65 5419.44C8648.66 5411.38 8646.4 5403.03 8643.77 5394.6L8569.01 5300.68L8566.65 5300.77C8561.93 5301.04 8539.55 5302.22 8505.21 5305.03C8466.24 5308.3 8411.78 5313.55 8350.61 5321.8C8348.8 5321.98 8346.89 5322.26 8345.08 5322.53C8339.1 5323.34 8333.03 5324.16 8326.96 5325.07V5341.84H8440.23C8445.74 5341.85 8451.05 5343.86 8455.19 5347.49C8459.32 5351.13 8461.99 5356.14 8462.71 5361.6C8462.8 5362.6 8462.89 5363.51 8462.89 5364.5C8462.89 5370.51 8460.5 5376.28 8456.25 5380.53C8452 5384.78 8446.24 5387.17 8440.23 5387.17H8039.86C8022.38 5392.88 8005.52 5398.86 7989.39 5405.3C7904.75 5438.85 7841.4 5482.81 7828.44 5540.02C7824.09 5559.24 7819.29 5580.36 7814.22 5602.85C7795.37 5686.44 7772.44 5788.79 7751.69 5881.81V5881.9C7747.43 5901.12 7743.17 5919.79 7739.09 5937.93C7721.78 6015.89 7707.1 6081.98 7699.31 6116.71C7699.13 6117.7 7698.95 6118.61 7698.76 6119.61V6119.79C7697.86 6126.81 7698.73 6133.95 7701.3 6140.55L7701.39 6140.64V6140.73C7703.88 6147.05 7707.94 6152.63 7713.17 6156.96C7716.67 6159.85 7720.62 6162.14 7724.86 6163.76L7806.61 6194.4C7811.16 6196.1 7815.97 6196.99 7820.83 6197.03C7827.64 6197.05 7834.35 6195.33 7840.31 6192.04C7848.88 6187.4 7855.5 6179.84 7858.98 6170.74L8034.97 5708.74L8062.25 5637.03C8107.83 5647.72 8490.26 5732.31 8618.3 5595.96C8643.6 5568.57 8658.04 5532.88 8658.9 5495.6C8659.8 5469.95 8657.02 5444.31 8650.65 5419.44Z" fill="#2F2E41"/>
<path d="M8640.59 4619.65C8639.15 4617.92 8637.6 4616.2 8635.97 4614.57C8611.84 4589.19 8582.03 4569.88 8549 4558.23C8515.97 4546.59 8480.65 4542.94 8445.94 4547.57C8415.66 4551.55 8385.66 4557.46 8356.13 4565.25C8317.99 4575.06 8283.07 4594.65 8254.82 4622.09C8232.81 4643.44 8215.48 4669.13 8203.92 4697.54C8192.36 4725.94 8186.82 4756.44 8187.67 4787.1C8188.03 4799.52 8188.12 4812.21 8187.94 4825.08C8187.94 4831.07 8187.85 4837.14 8187.76 4843.21H8277.11C8280.99 4843.2 8284.85 4843.66 8288.62 4844.57C8299.52 4847.18 8309.23 4853.38 8316.19 4862.18C8323.14 4870.98 8326.93 4881.86 8326.95 4893.08V5314.82C8333.02 5316.55 8339.1 5318.27 8345.08 5320.08C8346.98 5320.72 8348.79 5321.26 8350.6 5321.81C8352.69 5322.44 8354.77 5323.07 8356.77 5323.71C8375.16 5329.42 8393.14 5335.46 8410.69 5341.84H8440.23C8445.74 5341.85 8451.05 5343.86 8455.18 5347.49C8459.32 5351.13 8461.99 5356.14 8462.7 5361.6C8468.87 5364.05 8474.85 5366.5 8480.74 5368.95C8501.67 5377.65 8521.52 5386.35 8539.73 5394.79C8564.29 5406.03 8586.13 5416.73 8604.44 5426.06C8610.19 5429 8616.55 5430.55 8623.01 5430.6C8631.5 5430.57 8639.75 5427.84 8646.58 5422.8C8647.99 5421.75 8649.35 5420.63 8650.65 5419.44C8655.5 5414.9 8659.17 5409.23 8661.33 5402.94C8663.5 5396.66 8664.09 5389.93 8663.07 5383.36C8653.71 5312.15 8650.98 5240.22 8654.91 5168.5C8657.45 5108.21 8662.89 5046.38 8669.96 4986.64C8673.76 4954.27 8678.02 4922.54 8682.46 4891.99C8686.72 4862.8 8691.25 4834.78 8695.69 4808.31C8701.52 4774.74 8699.58 4740.28 8690.03 4707.58C8680.48 4674.88 8663.57 4644.8 8640.59 4619.65Z" fill="#3665DC"/>
<path d="M8269.14 4627.08C8264.49 4625.08 8259.71 4623.42 8254.82 4622.09C8230.67 4615.59 8204.99 4617.99 8182.46 4628.86C8159.93 4639.73 8142.07 4658.34 8132.12 4681.29L8069.86 4825.08L8062.07 4843.21H8277.11C8280.99 4843.2 8284.85 4843.66 8288.62 4844.57L8295.87 4827.8L8323.42 4764.16C8334.36 4738.78 8334.79 4710.09 8324.62 4684.39C8314.44 4658.69 8294.49 4638.08 8269.14 4627.08Z" fill="#3665DC"/>
<path d="M8462.49 4476.78C8585.41 4476.78 8685.07 4377.09 8685.07 4254.11C8685.07 4131.14 8585.41 4031.45 8462.49 4031.45C8339.56 4031.45 8239.91 4131.14 8239.91 4254.11C8239.91 4377.09 8339.56 4476.78 8462.49 4476.78Z" fill="#FFB8B8"/>
<path d="M8235.91 4144.71C8341.33 4209.09 8460.19 4248.27 8583.22 4259.2L8546.61 4215.31C8573.27 4225.17 8601.32 4230.75 8629.72 4231.82C8658.09 4231.38 8687.81 4220.45 8703.91 4197.09C8711.09 4185.47 8715.35 4172.29 8716.34 4158.66C8717.33 4145.04 8715.01 4131.38 8709.58 4118.85C8698.42 4093.85 8681.05 4072.13 8659.13 4055.75C8620.28 4025 8574.42 4004.34 8525.65 3995.62C8476.88 3986.9 8426.71 3990.39 8379.61 4005.77C8347.31 4015.43 8318.38 4034 8296.13 4059.35C8275.03 4085.39 8234.41 4108.59 8245.21 4140.32L8235.91 4144.71Z" fill="#2F2E41"/>
<path d="M8499.92 3965.02C8429.72 3893.8 8344.76 3838.85 8251.04 3804.02C8190.88 3781.72 8125.4 3767.95 8062.5 3780.61C7999.61 3793.27 7940.12 3836.8 7922.58 3898.54C7908.23 3949.02 7923.05 4003.37 7945.31 4050.89C7967.58 4098.42 7997.31 4142.48 8015.31 4191.78C8033.69 4242.08 8039.21 4296.17 8031.39 4349.14C8023.57 4402.12 8002.64 4452.3 7970.51 4495.14C7938.39 4537.97 7896.07 4572.1 7847.42 4594.42C7798.76 4616.75 7745.3 4626.56 7691.89 4622.97C7753.69 4631.26 7810.66 4660.32 7871.06 4675.78C7931.47 4691.25 8002.76 4690.2 8047.65 4646.91C8095.14 4601.1 8096.09 4526.63 8093.8 4460.67C8090.38 4362.62 8086.97 4264.57 8083.56 4166.52C8081.82 4116.52 8080.33 4064.92 8098.35 4018.25C8116.38 3971.57 8159.22 3930.71 8209.23 3931.13C8247.13 3931.45 8280.68 3954.42 8311.07 3977.08C8341.47 3999.73 8373.64 4023.9 8411.4 4027.27C8449.15 4030.64 8492.26 4002.69 8489.43 3964.87L8499.92 3965.02Z" fill="#2F2E41"/>
<path d="M8682.46 4891.98L8555.41 4895.43L8546.17 4984.73L8544.09 5005.4L8345.08 5094.79L8326.96 5102.95V5261.88L8345.08 5256.71L8402.35 5240.39H8402.62L8654.91 5168.5L8657.81 5167.68C8678.2 5161.79 8696.14 5149.48 8708.97 5132.57C8721.81 5115.67 8728.85 5095.07 8729.04 5073.85L8729.68 4968.41L8730.22 4890.71L8682.46 4891.98Z" fill="#FFB8B8"/>
<path d="M8723.79 4715.39C8722.1 4687.78 8709.51 4661.98 8688.8 4643.66C8668.09 4625.34 8640.96 4616.01 8613.37 4617.7C8585.78 4619.4 8559.99 4631.99 8541.68 4652.7C8523.36 4673.42 8514.03 4700.57 8515.72 4728.17L8529.58 4954.46C8529.96 4960.41 8531.64 4966.21 8534.51 4971.44C8537.37 4976.68 8541.35 4981.21 8546.17 4984.74C8553.83 4990.45 8563.28 4993.25 8572.81 4992.62L8669.96 4986.64L8699.41 4984.83C8704.78 4984.56 8710.03 4983.21 8714.86 4980.86C8719.69 4978.51 8723.99 4975.2 8727.51 4971.14C8728.28 4970.28 8729.01 4969.37 8729.68 4968.42C8735.44 4960.7 8738.27 4951.19 8737.65 4941.58L8723.79 4715.39Z" fill="#3665DC"/>
<path d="M8356.77 5323.71H8345.08V5322.53C8339.1 5323.35 8333.03 5324.16 8326.96 5325.07V5341.84H8410.69C8393.11 5335.5 8375.13 5329.45 8356.77 5323.71ZM8356.77 5323.71H8345.08V5322.53C8339.1 5323.35 8333.03 5324.16 8326.96 5325.07V5341.84H8410.69C8393.11 5335.5 8375.13 5329.45 8356.77 5323.71ZM8440.23 5323.71H8345.08V4893.08C8345.05 4878.33 8340.23 4864 8331.36 4852.23C8322.48 4840.46 8310.03 4831.89 8295.87 4827.8C8289.79 4825.97 8283.47 4825.05 8277.11 4825.08H7470.58C7452.56 4825.1 7435.29 4832.28 7422.54 4845.02C7409.8 4857.77 7402.63 4875.05 7402.61 4893.08V5337.31C7402.62 5355.34 7409.78 5372.63 7422.53 5385.38C7435.27 5398.13 7452.56 5405.3 7470.58 5405.3H8440.23C8450.27 5405.29 8459.95 5401.57 8467.42 5394.86C8474.9 5388.16 8479.64 5378.93 8480.74 5368.95C8480.92 5367.48 8481.01 5365.99 8481.01 5364.51C8481 5353.69 8476.69 5343.32 8469.05 5335.68C8461.41 5328.03 8451.04 5323.73 8440.23 5323.71ZM8462.89 5364.51C8462.89 5370.52 8460.5 5376.28 8456.25 5380.53C8452 5384.78 8446.24 5387.17 8440.23 5387.17H7470.58C7457.36 5387.16 7444.69 5381.91 7435.34 5372.56C7426 5363.21 7420.74 5350.53 7420.74 5337.31V4893.08C7420.75 4879.86 7426 4867.18 7435.34 4857.83C7444.69 4848.48 7457.36 4843.22 7470.58 4843.21H8277.11C8280.99 4843.2 8284.85 4843.66 8288.62 4844.57C8299.53 4847.18 8309.24 4853.38 8316.19 4862.18C8323.14 4870.98 8326.93 4881.86 8326.96 4893.08V5341.84H8440.23C8445.74 5341.85 8451.05 5343.86 8455.19 5347.49C8459.32 5351.13 8461.99 5356.15 8462.71 5361.61C8462.79 5362.6 8462.89 5363.51 8462.89 5364.51ZM8356.77 5323.71H8345.08V5322.53C8339.1 5323.35 8333.03 5324.16 8326.96 5325.07V5341.84H8410.69C8393.11 5335.5 8375.13 5329.45 8356.77 5323.71Z" fill="#3F3D56"/>
<path d="M7873.82 5169.6C7903.85 5169.6 7928.19 5145.25 7928.19 5115.21C7928.19 5085.17 7903.85 5060.81 7873.82 5060.81C7843.79 5060.81 7819.45 5085.17 7819.45 5115.21C7819.45 5145.25 7843.79 5169.6 7873.82 5169.6Z" fill="#63D0FF"/>
<path d="M3017.25 647.751C3017.04 651.893 3017.17 656.045 3017.62 660.167L2733.05 899.091L2648.19 868.353L2585.08 990.414L2770.61 1078.77L3081.71 729.511C3097.42 732.362 3113.63 730.361 3128.17 723.774C3142.72 717.187 3154.91 706.326 3163.14 692.637C3171.36 678.947 3175.23 663.076 3174.22 647.136C3173.21 631.196 3167.37 615.941 3157.48 603.401C3147.59 590.86 3134.12 581.629 3118.86 576.934C3103.6 572.239 3087.27 572.303 3072.05 577.117C3056.83 581.932 3043.43 591.269 3033.64 603.886C3023.85 616.503 3018.13 631.803 3017.25 647.751L3017.25 647.751Z" fill="#FFB8B8"/>
<path d="M2635.59 1048.96L2360.79 949.728C2335.56 940.618 2314.98 921.856 2303.58 897.568C2292.18 873.28 2290.89 845.456 2300 820.217C2309.11 794.979 2327.86 774.393 2352.14 762.988C2376.42 751.583 2404.23 750.294 2429.46 759.404L2704.26 858.634C2708.42 860.137 2712.25 862.446 2715.52 865.428C2718.79 868.411 2721.44 872.01 2723.32 876.018C2725.2 880.026 2726.28 884.367 2726.48 888.79C2726.69 893.214 2726.02 897.634 2724.52 901.8L2678.74 1028.69C2675.69 1037.09 2669.44 1043.95 2661.35 1047.75C2653.26 1051.55 2644 1051.98 2635.59 1048.96V1048.96Z" fill="#CCCCCC"/>
<path d="M2434.33 2015.66L2526.17 2015.65L2569.86 1661.26L2434.31 1661.27L2434.33 2015.66Z" fill="#FFB8B8"/>
<path d="M2703.29 2100.96L2414.65 2100.97L2414.65 1989.41L2591.77 1989.4C2621.34 1989.4 2649.71 2001.15 2670.62 2022.07C2691.54 2043 2703.29 2071.37 2703.29 2100.96L2703.29 2100.96Z" fill="#2F2E41"/>
<path d="M2207.36 1896.97L2282.49 1949.82L2521.98 1685.06L2411.11 1607.08L2207.36 1896.97Z" fill="#FFB8B8"/>
<path d="M2369.27 2103.39L2133.15 1937.31L2197.29 1846.04L2342.18 1947.96C2366.38 1964.98 2382.82 1990.91 2387.9 2020.06C2392.98 2049.21 2386.28 2079.19 2369.27 2103.39L2369.27 2103.39Z" fill="#2F2E41"/>
<path d="M2635.29 1377.27C2635.29 1377.27 2864.48 1350.22 2823.34 1499.01C2782.2 1647.79 2323.83 1776.29 2323.83 1776.29L2635.29 1377.27Z" fill="#FFB8B8"/>
<path d="M2477.54 618.098C2579.15 618.098 2661.53 535.689 2661.53 434.032C2661.53 332.376 2579.15 249.967 2477.54 249.967C2375.93 249.967 2293.55 332.376 2293.55 434.032C2293.55 535.689 2375.93 618.098 2477.54 618.098Z" fill="#FFB8B8"/>
<path d="M1890.79 1745.82C1786.09 1623.87 1749.46 1436.7 1916.42 1281.02C1957.65 1243.52 2004.34 1212.5 2054.89 1189.03L2189.45 812.561C2203.42 773.249 2229.05 739.135 2262.91 714.77C2296.77 690.405 2337.25 676.948 2378.95 676.194C2419.43 674.446 2459.47 685.281 2493.56 707.211C2527.64 729.14 2554.11 761.09 2569.31 798.671C2585.75 836.903 2587.63 879.83 2574.6 919.354C2534.54 1044.15 2481.94 1164.56 2417.59 1278.73L2424.55 1334.42L2764.67 1364.66L2761.5 1369.82C2759.84 1372.51 2593.38 1626.24 2380.43 1794.65C2307.62 1852.24 2232.33 1876.1 2161.27 1876.1C2053.51 1876.09 1955.5 1821.21 1890.79 1745.82Z" fill="#CCCCCC"/>
<path d="M1858.69 491.775C1891.24 452.971 1905.2 402.216 1916.43 352.821C1934.2 274.665 1947.95 193.849 1987.44 124.104C2026.91 54.3595 2099.47 -3.43084 2179.47 0.968057C2259.01 5.34184 2323.32 69.3628 2357.45 142.206C2365.72 138.994 2374.57 137.555 2383.42 137.983C2392.28 138.41 2400.95 140.694 2408.87 144.686C2433.47 158.164 2442.67 196.473 2422.19 215.651C2443.73 205.391 2467.18 199.781 2491.03 199.186C2514.88 198.591 2538.58 203.025 2560.61 212.199C2588.93 224.26 2613.37 243.901 2631.25 268.963C2649.13 294.024 2659.76 323.534 2661.96 354.246C2662.81 366.711 2661.1 379.22 2656.93 390.997C2652.76 402.774 2646.21 413.568 2637.7 422.711C2602.4 459.068 2552.47 446.527 2508.08 437.265C2466.14 428.518 2415.07 426.156 2391.45 466.125C2382.14 482.78 2379.53 502.361 2384.16 520.872C2393.21 560.772 2422.74 588.564 2451.39 615.163L2456.08 623.87C2354.93 643.603 2244.47 574.496 2217.94 474.876C2191.41 375.256 2252.84 260.33 2350.4 227.097C2343.9 227.299 2337.47 225.764 2331.77 222.649C2326.07 219.534 2321.31 214.952 2317.97 209.378C2314.63 203.804 2312.84 197.439 2312.78 190.941C2312.73 184.443 2314.4 178.048 2317.64 172.416C2290.64 157.282 2260.08 149.654 2229.14 150.324C2178.75 153.632 2135.14 189.515 2108.92 232.688C2082.69 275.861 2070.82 325.972 2058.79 375.036C2046.76 424.101 2033.74 474.105 2005.7 516.121C1986.28 545.221 1960.33 569.378 1929.92 586.663C1899.51 603.949 1865.48 613.884 1830.55 615.676C1795.62 617.469 1760.76 611.069 1728.74 596.987C1696.72 582.905 1668.43 561.532 1646.14 534.572C1681.37 551.664 1721.23 556.733 1759.62 549.004C1798.01 541.274 1832.81 521.172 1858.69 491.775Z" fill="#2F2E41"/>
<path d="M3210.04 993.398C3357.75 993.398 3477.48 873.611 3477.48 725.846C3477.48 578.08 3357.75 458.293 3210.04 458.293C3062.34 458.293 2942.6 578.08 2942.6 725.846C2942.6 873.611 3062.34 993.398 3210.04 993.398Z" fill="#1D5DBC"/>
<path d="M3201.82 876.311C3200.74 875.232 3199.88 873.949 3199.3 872.538C3198.71 871.126 3198.41 869.613 3198.42 868.085V571.964C3198.42 568.879 3199.64 565.92 3201.82 563.739C3204 561.557 3206.96 560.332 3210.04 560.332C3213.13 560.332 3216.08 561.557 3218.26 563.739C3220.44 565.92 3221.67 568.879 3221.67 571.964V868.085C3221.67 870.386 3220.99 872.634 3219.71 874.547C3218.43 876.46 3216.62 877.951 3214.49 878.831C3212.37 879.711 3210.03 879.942 3207.77 879.493C3205.52 879.045 3203.45 877.937 3201.82 876.311H3201.82Z" fill="white"/>
<path d="M3053.82 728.25C3052.19 726.623 3051.09 724.55 3050.64 722.294C3050.19 720.037 3050.42 717.699 3051.3 715.573C3052.18 713.448 3053.67 711.632 3055.58 710.353C3057.5 709.075 3059.74 708.393 3062.04 708.393H3358.04C3361.12 708.393 3364.08 709.618 3366.26 711.799C3368.44 713.981 3369.67 716.939 3369.67 720.024C3369.67 723.109 3368.44 726.068 3366.26 728.249C3364.08 730.43 3361.12 731.656 3358.04 731.656H3062.04C3060.52 731.658 3059 731.359 3057.59 730.774C3056.18 730.189 3054.9 729.332 3053.82 728.25Z" fill="white"/>
<path d="M3026.46 904.796C3024.52 908.46 3022.87 912.271 3021.53 916.194L2662.43 1011.46L2598.68 947.551L2489.69 1031.2L2620.1 1190.07L3050.08 1006.22C3063.09 1015.48 3078.61 1020.56 3094.57 1020.78C3110.54 1021 3126.19 1016.36 3139.45 1007.46C3152.71 998.567 3162.95 985.844 3168.81 970.985C3174.67 956.127 3175.87 939.836 3172.24 924.28C3168.62 908.725 3160.35 894.641 3148.53 883.902C3136.71 873.163 3121.91 866.279 3106.08 864.164C3090.26 862.048 3074.16 864.803 3059.94 872.061C3045.72 879.319 3034.04 890.737 3026.46 904.796L3026.46 904.796Z" fill="#FFB8B8"/>
<path d="M2510.54 1105.68L2303.96 899.014C2294.54 889.625 2287.06 878.471 2281.96 866.189C2276.86 853.907 2274.22 840.74 2274.21 827.439C2274.2 814.139 2276.81 800.966 2281.89 788.676C2286.98 776.386 2294.43 765.219 2303.83 755.814C2313.23 746.409 2324.4 738.951 2336.68 733.866C2348.97 728.782 2362.13 726.17 2375.43 726.182C2388.72 726.193 2401.89 728.827 2414.16 733.932C2426.44 739.038 2437.59 746.515 2446.97 755.936L2653.56 962.605C2656.69 965.736 2659.17 969.453 2660.86 973.545C2662.56 977.636 2663.43 982.021 2663.43 986.449C2663.43 990.878 2662.56 995.263 2660.86 999.354C2659.17 1003.44 2656.69 1007.16 2653.56 1010.29L2558.21 1105.68C2551.88 1112 2543.31 1115.54 2534.37 1115.54C2525.44 1115.54 2516.87 1112 2510.54 1105.68V1105.68Z" fill="#CCCCCC"/>
</g>
<defs>
<clipPath id="clip0">
<rect width="8949.69" height="6473.35" fill="white" transform="translate(0.865234 0.732422)"/>
</clipPath>
</defs>
</svg>
