<svg width="12" height="12" viewBox="0 0 12 12" fill="none" xmlns="http://www.w3.org/2000/svg">
<path opacity="0.5" d="M10.8628 5.85055C10.1933 5.55886 9.65431 5.03107 9.34855 4.36766C9.04279 3.70425 8.99157 2.95153 9.20463 2.25279C9.23911 2.14567 9.26082 2.03485 9.26934 1.92263C9.28882 1.6025 9.20471 1.28459 9.02945 1.01602C8.8542 0.747438 8.59711 0.542466 8.2963 0.431464C7.99548 0.320462 7.66695 0.309336 7.35932 0.399726C7.05169 0.490115 6.78132 0.677215 6.5883 0.933317C6.52192 1.02418 6.46651 1.12256 6.42318 1.22642C6.13157 1.89618 5.60396 2.4353 4.94076 2.74116C4.27756 3.04702 3.52507 3.09826 2.82654 2.88514C2.71945 2.85065 2.60868 2.82892 2.49649 2.82041C2.17646 2.80092 1.85866 2.88506 1.59016 3.06037C1.32167 3.23568 1.11676 3.49283 1.00579 3.79374C0.894828 4.09465 0.883699 4.42331 0.97406 4.73104C1.06442 5.03877 1.25147 5.3092 1.50749 5.50228C1.59832 5.56868 1.69666 5.62412 1.80049 5.66746C2.47004 5.95915 3.009 6.48694 3.31477 7.15035C3.62053 7.81376 3.67175 8.56648 3.45868 9.26522C3.42421 9.37235 3.40249 9.48317 3.39398 9.59539C3.3745 9.91553 3.45861 10.2334 3.63387 10.502C3.80912 10.7706 4.0662 10.9756 4.36702 11.0866C4.66783 11.1976 4.99639 11.2087 5.30402 11.1183C5.61166 11.0279 5.882 10.8408 6.07502 10.5847C6.14139 10.4938 6.19681 10.3955 6.24014 10.2916C6.53174 9.62184 7.05935 9.08272 7.72256 8.77685C8.38576 8.47099 9.13825 8.41975 9.83677 8.63288C9.94386 8.66737 10.0546 8.6891 10.1668 8.69761C10.4869 8.7171 10.8047 8.63295 11.0732 8.45764C11.3416 8.28233 11.5466 8.02518 11.6575 7.72427C11.7685 7.42337 11.7796 7.09471 11.6893 6.78698C11.5989 6.47925 11.4118 6.20882 11.1558 6.01574C11.065 5.94934 10.9667 5.8939 10.8628 5.85055Z" fill="#4D8AF0"/>
</svg>
