<svg width="20" height="10" viewBox="0 0 770 514" fill="none" xmlns="http://www.w3.org/2000/svg">
<path d="M577.704 513.395C575.225 513.397 572.798 512.679 570.718 511.33L314.324 344.674C310.792 342.381 308.611 338.502 308.489 334.294C308.367 330.086 310.317 326.086 313.71 323.592L621.294 97.4311L237.417 294.047C233.699 295.954 229.284 295.931 225.586 293.984L6.83798 178.605C2.05128 176.079 -0.6338 170.82 0.126819 165.462C0.887438 160.104 4.93033 155.8 10.2302 154.707L754.349 0.919573C759.477 -0.235101 764.789 1.85432 767.758 6.19046C768.028 6.57382 768.271 6.9755 768.483 7.39247C769.682 9.6224 770.188 12.1593 769.936 14.6795C769.875 15.3438 769.757 16.0006 769.585 16.6452C769.469 17.1034 769.326 17.5554 769.159 17.9968L589.735 505.007C587.882 510.05 583.077 513.401 577.704 513.395ZM343.832 333.269L571.231 481.072L730.401 49.0325L343.832 333.269ZM50.3933 172.583L231.659 268.192L667.191 45.1134L50.3933 172.583Z" fill="#FFF"/>
</svg>
